PathFileType	4	(X/Y/Z)	C:\Users\Admin\Desktop\Capture Files\05302019 Reflex Trials\StaticTrial_1-Unnamed.trc
DataRate	CameraRate	NumFrames	NumMarkers	Units	OrigDataRate	OrigDataStartFrame	OrigNumFrames
300.00	300.00	      28	0	mm	300.00	995	      1137
Frame#	Time	
		

995	3.313	579.30908	-623.99921	918.17023	863.13464	-849.61652	1269.37305	497.96237	-499.27551	874.62103				431.86188	-312.71310	455.62143	179.89220	-512.73346	611.00372	157.92532	-529.24115	409.41461	822.02588	-766.83771	1020.25977	290.92270	-499.35956	729.57483	896.29089	-726.51526	1114.53613	182.78773	-589.06409	725.03564	370.78491	-425.41351	714.99274	499.73926	-364.80688	739.23615				428.34549	-327.03116	639.87720	
996	3.317	579.29688	-624.01282	918.15790	863.34760	-849.92761	1269.39233	497.95264	-499.27856	874.63647				431.86023	-312.71414	455.63046	179.89058	-512.73883	611.00513	157.91977	-529.25641	409.42053	821.97223	-766.82355	1020.20715	290.14267	-498.74057	730.10974	896.28162	-726.50952	1114.53662	182.78226	-589.06659	725.02820	370.75256	-425.40756	715.00226	499.74271	-364.80795	739.22711				428.35138	-327.06033	639.88727	
997	3.320	579.30536	-624.01434	918.16608	863.50012	-850.13995	1269.39587	497.92850	-499.25690	874.62787				431.85138	-312.70770	455.64221	179.88696	-512.72705	611.01392	157.92235	-529.26318	409.42078	821.98621	-766.83734	1020.22760	290.93423	-499.34366	729.58264	896.26465	-726.49445	1114.53699	182.78442	-589.08368	725.02209	370.75516	-425.41476	714.99957	499.73364	-364.81613	739.23413				428.35120	-327.04205	639.88062	
998	3.323	579.30096	-624.03180	918.15112	863.45251	-850.09467	1269.35168	497.94247	-499.29947	874.62146				431.83630	-312.72229	455.62704	179.88226	-512.75494	611.00269	157.91977	-529.25977	409.42255	821.98499	-766.86060	1020.22406	290.12778	-498.73654	730.09863	896.26044	-726.52765	1114.53406	182.77809	-589.10248	725.01123	370.75323	-425.41382	714.99927	499.71567	-364.81204	739.22534				428.33432	-327.04510	639.87457	
999	3.327	579.28009	-624.02594	918.17029	863.29498	-849.85114	1269.31104	497.92657	-499.28357	874.62201				431.82892	-312.70819	455.62302	179.89038	-512.74243	611.01990	157.90651	-529.26160	409.43030	821.96857	-766.84808	1020.22125	290.92181	-499.35806	729.60736	896.16492	-726.49475	1114.53113	182.76534	-589.08301	725.02032	370.75262	-425.40613	714.99231	499.70477	-364.81595	739.24207				428.32721	-327.05527	639.88306	
1000	3.330	579.28241	-624.02197	918.14313	863.34656	-849.97021	1269.29932	497.92126	-499.28122	874.64026				431.82809	-312.71512	455.63144	179.88510	-512.76019	611.00836	157.91740	-529.26428	409.41687	821.93976	-766.83362	1020.22632	290.12662	-498.75568	730.12604	896.25397	-726.56525	1114.47949	182.76578	-589.08038	725.01709	370.73633	-425.42795	714.99731	499.70850	-364.80618	739.24628				428.31552	-327.06683	639.89087	
1001	3.333	579.25604	-624.03204	918.16663	863.43622	-850.13507	1269.31995	497.91443	-499.29636	874.64600				431.83560	-312.72565	455.63727	179.89058	-512.76794	611.01031	157.92465	-529.27026	409.40793	821.93958	-766.82629	1020.20624	290.90439	-499.35574	729.60291	896.29279	-726.60181	1114.50635	182.75786	-589.08405	725.03137	370.72241	-425.41669	715.00739	499.69196	-364.82333	739.23596				428.32462	-327.05383	639.88654	
1002	3.337	579.28113	-624.02734	918.14972	863.57312	-850.29474	1269.35413	497.91211	-499.29733	874.61829				431.81189	-312.73203	455.63147	179.89406	-512.76245	611.01978	157.91466	-529.26422	409.41876	821.95001	-766.85406	1020.19434	290.89993	-499.34995	729.59735	896.29773	-726.62823	1114.50330	182.76436	-589.10980	725.02081	370.72992	-425.42776	715.00873	499.69461	-364.82089	739.23920				428.30566	-327.06158	639.89026	
1003	3.340	579.28870	-624.06598	918.15338	863.45959	-850.18372	1269.26843	497.91248	-499.30930	874.63184				431.81412	-312.71689	455.63635	179.87488	-512.75323	611.00543	157.90979	-529.26831	409.41425	821.97424	-766.90002	1020.19623	290.89059	-499.35626	729.60950	896.32642	-726.63135	1114.53040	182.74901	-589.12061	725.02319	370.71997	-425.43079	714.99756	499.66321	-364.83521	739.24902				428.30322	-327.07501	639.88660	
1004	3.343	579.26398	-624.02020	918.15601	863.46429	-850.17108	1269.32617	497.87952	-499.28778	874.63507				431.79044	-312.72156	455.63712	179.88069	-512.75946	611.03192	157.91631	-529.27313	409.40637	821.98346	-766.90649	1020.20612	290.88647	-499.36746	729.61511	896.31763	-726.69568	1114.48999	182.75104	-589.09174	725.04114	370.69882	-425.42340	715.01044	499.67349	-364.83536	739.25568				428.28387	-327.07263	639.89465	
1005	3.347	579.25012	-624.04852	918.16345	863.45837	-850.19043	1269.28760	497.87521	-499.30405	874.64124				431.79340	-312.73630	455.65161	179.87556	-512.77716	611.02521	157.91417	-529.27972	409.39923	821.96295	-766.89136	1020.19049	290.88745	-499.38266	729.60364	896.22931	-726.64899	1114.51294	182.76106	-589.12225	725.03992	370.68399	-425.42386	715.01593	499.67844	-364.84195	739.26685				428.27628	-327.06241	639.89783	
1006	3.350	579.24481	-624.04895	918.16022	863.32733	-850.04565	1269.25342	497.87775	-499.32339	874.62134				431.80075	-312.73740	455.65802	179.87447	-512.76324	611.03040	157.88997	-529.26599	409.42685	822.03864	-766.99152	1020.18634	290.89954	-499.38293	729.63562	896.28680	-726.67432	1114.48193	182.75372	-589.12677	725.02844	370.70013	-425.44299	715.01764	499.64621	-364.84714	739.26605				428.26242	-327.07224	639.91101	
1007	3.353	579.25964	-624.07813	918.15149	863.42883	-850.18988	1269.26074	497.88095	-499.33606	874.63055				431.80258	-312.74289	455.67111	179.87669	-512.80060	611.02295	157.93312	-529.28387	409.42603	821.94830	-766.94531	1020.19440	290.86398	-499.38016	729.62177	896.28430	-726.66791	1114.50073	182.73448	-589.12476	725.03772	370.68774	-425.44125	715.01331	499.64987	-364.86230	739.26886				428.26599	-327.08008	639.90509	
1008	3.357	579.26361	-624.08472	918.15387	863.32849	-850.08228	1269.26379	497.86096	-499.32440	874.62604				431.78262	-312.74081	455.66760	179.86815	-512.78979	611.03186	157.92543	-529.26520	409.42029	822.01813	-766.99780	1020.16974	290.87308	-499.36929	729.62921	896.24457	-726.65717	1114.47339	182.75980	-589.12305	725.03418	370.68829	-425.46609	715.01385	499.64868	-364.86029	739.27264				428.23639	-327.07797	639.91614	
1009	3.360	579.23175	-624.08795	918.16339	863.41455	-850.16235	1269.20886	497.86420	-499.33170	874.65796				431.78384	-312.73721	455.66574	179.86453	-512.78809	611.02112	157.92654	-529.27789	409.42471	821.99548	-766.98505	1020.17230	290.87494	-499.37961	729.63794	896.24670	-726.66187	1114.47595	182.72891	-589.14056	725.04205	370.68604	-425.46216	715.01807	499.64615	-364.87292	739.28101				428.24213	-327.07806	639.91956	
1010	3.363	579.23969	-624.09503	918.15295	863.47949	-850.29919	1269.23425	497.84598	-499.34113	874.64941				431.78760	-312.75394	455.67789	179.86839	-512.78851	611.04517	157.92542	-529.28113	409.42624	821.96411	-767.00311	1020.17633	290.09387	-498.78534	730.15845	896.23920	-726.69299	1114.48840	182.72688	-589.13953	725.04999	370.68939	-425.45987	715.03253	499.61801	-364.87595	739.27954				428.26547	-327.09366	639.93036	
1011	3.367	579.22601	-624.12823	918.15753	863.36841	-850.16931	1269.21155	497.85794	-499.38910	874.64166				431.76654	-312.75424	455.67810	179.87636	-512.78931	611.02820	157.90112	-529.27747	409.45157	821.94403	-766.98340	1020.18689	290.87061	-499.41565	729.65686	896.23883	-726.71106	1114.46375	182.73068	-589.13544	725.05585	370.65945	-425.48489	715.03674	499.61481	-364.87726	739.29065				428.23807	-327.10226	639.92999	
1012	3.370	579.22571	-624.12012	918.16949	863.35797	-850.14069	1269.22278	497.84775	-499.37692	874.63416				431.76587	-312.72351	455.70264	179.85048	-512.80450	611.04309	157.93047	-529.27576	409.44733	821.97833	-767.00922	1020.16174	290.90167	-499.43304	729.64984	896.32507	-726.80518	1114.49976	182.73016	-589.18274	725.04816	370.65533	-425.49014	715.03235	499.62003	-364.89151	739.30414				428.24942	-327.10672	639.92987	
1013	3.373	579.21625	-624.12823	918.17389	863.28619	-850.04541	1269.17883	497.85056	-499.38382	874.65143				431.75906	-312.73532	455.70251	179.85440	-512.79150	611.05945	157.91057	-529.27173	409.45923	821.94653	-767.03723	1020.17108	290.86981	-499.41544	729.65833	896.25873	-726.75562	1114.48120	182.73050	-589.14923	725.05151	370.65344	-425.47937	715.03577	499.60474	-364.89255	739.29669				428.23730	-327.12616	639.94653	
1014	3.377	579.22473	-624.15442	918.16779	863.52557	-850.43561	1269.23425	497.83398	-499.38867	874.67224	896.16144	-726.54437	1114.29565	431.75082	-312.74890	455.70972	179.84402	-512.80609	611.04846	157.91498	-529.27832	409.44266	821.95947	-767.02954	1020.16931	290.87473	-499.41989	729.65839				182.71187	-589.17462	725.07880	370.64523	-425.48645	715.02692	499.60974	-364.92026	739.31525				428.21579	-327.11374	639.95593	
1015	3.380	579.21576	-624.12799	918.19330	863.37018	-850.21136	1269.17883	497.82285	-499.40747	874.66980	896.09326	-726.49115	1114.28503	431.75641	-312.75531	455.69455	179.87479	-512.82300	611.04517	157.92110	-529.27777	409.44373	821.92792	-767.04144	1020.14746	290.88162	-499.43964	729.65387				182.75066	-589.17169	725.08167	370.66248	-425.49612	715.04474	499.61465	-364.93826	739.31500				428.22891	-327.11948	639.94977	
1016	3.383	579.20496	-624.15454	918.18109	863.40704	-850.28351	1269.20227	497.85370	-499.44366	874.66229	896.24042	-726.76129	1114.48730	431.74667	-312.75446	455.71887	179.85475	-512.79291	611.06470	157.93515	-529.26434	409.43546	821.92200	-767.06250	1020.16589	290.89182	-499.46335	729.67120				182.74493	-589.20612	725.06506	370.66104	-425.52103	715.06219	499.60309	-364.91382	739.32428				428.21512	-327.12976	639.97559	
1017	3.387	579.22583	-624.19995	918.16803	863.43567	-850.38318	1269.18005	497.81995	-499.44354	874.68561	896.27734	-726.83948	1114.47498	431.74826	-312.77316	455.73611	179.86185	-512.81952	611.08301	157.91962	-529.25140	409.46881	821.93280	-767.06488	1020.17993	290.88809	-499.45001	729.66321				182.73204	-589.18817	725.08197	370.66556	-425.54153	715.05237	499.59387	-364.94357	739.31665				428.23260	-327.15524	639.97290	
1018	3.390	579.20319	-624.18500	918.17731	863.40680	-850.32074	1269.18848	497.81241	-499.44370	874.68500	896.30579	-726.86737	1114.48242	431.74527	-312.75946	455.72644	179.86096	-512.80725	611.08588	157.92564	-529.25867	409.46042	821.96552	-767.14404	1020.15619	290.88528	-499.47833	729.68665				182.73454	-589.18091	725.07056	370.64297	-425.53162	715.06653	499.58688	-364.95023	739.34113				428.22198	-327.15552	639.98065	
1019	3.393	579.22784	-624.22443	918.20313	863.24243	-850.08752	1269.24646	497.81873	-499.46320	874.69238				431.76141	-312.77789	455.73853	179.85951	-512.83307	611.08093	157.93517	-529.26971	409.46359	821.94525	-767.13074	1020.15479	290.87848	-499.45581	729.67828	896.12543	-726.60321	1114.26453	182.75552	-589.19446	725.08124	370.65137	-425.54678	715.07190	499.58621	-364.94867	739.33752				428.20477	-327.16446	639.99207	
1020	3.397	579.21594	-624.20538	918.20282	863.43237	-850.30841	1269.19287	497.83127	-499.47687	874.67975				431.73907	-312.76526	455.76297	179.86955	-512.85413	611.10638	157.92802	-529.25568	409.48599	821.92645	-767.12561	1020.16449	290.88950	-499.47244	729.68939	896.18695	-726.67792	1114.29004	182.74472	-589.20459	725.09277	370.65744	-425.57361	715.07404	499.58511	-364.96783	739.35828				428.21442	-327.16513	639.98969	
1021	3.400	579.23505	-624.22119	918.21637	863.46277	-850.44177	1269.18994	497.81091	-499.49899	874.68536				431.73782	-312.78854	455.76031	179.87314	-512.82843	611.09930	157.91861	-529.24298	409.48566	821.93256	-767.16327	1020.14673	290.89175	-499.48947	729.71948	896.10217	-726.62238	1114.28699	182.73810	-589.19476	725.08551	370.64099	-425.56595	715.08020	499.58701	-364.98706	739.36414				428.19510	-327.18347	639.99274	
1022	3.403	579.21497	-624.24054	918.22247	863.48425	-850.43976	1269.27551	497.80289	-499.49832	874.68640				431.72433	-312.79065	455.76096	179.87366	-512.83539	611.10529	157.93567	-529.24896	409.49088	821.92975	-767.22137	1020.17798	290.89029	-499.48651	729.68878	896.02667	-726.59290	1114.28992	182.76425	-589.21863	725.09229	370.65970	-425.59338	715.07666	499.57761	-364.99255	739.37067				428.21301	-327.18280	639.98920	
